HIERARCHY
ROOT Hips
{
	OFFSET 0.00000 0.00000 0.00000
	CHANNELS 6 Xposition Yposition Zposition Zrotation Yrotation Xrotation 
	JOINT LHipJoint
	{
		OFFSET 0 0 0
		CHANNELS 3 Zrotation Yrotation Xrotation
		JOINT LeftHip
		{
			OFFSET 1.62964 -1.40469 0.78906
			CHANNELS 3 Zrotation Yrotation Xrotation
			JOINT LeftKnee
			{
				OFFSET 2.29640 -6.30932 0.00000
				CHANNELS 3 Zrotation Yrotation Xrotation
				JOINT LeftAnkle
				{
					OFFSET 2.29451 -6.30412 0.00000
					CHANNELS 3 Zrotation Yrotation Xrotation
					JOINT LeftToe
					{
						OFFSET 0.03611 -0.09921 1.56387
						CHANNELS 3 Zrotation Yrotation Xrotation
						End Site
						{
							OFFSET 0.00000 -0.00000 0.80291
						}
					}
				}
			}
		}
	}
	JOINT RHipJoint
	{
		OFFSET 0 0 0
		CHANNELS 3 Zrotation Yrotation Xrotation
		JOINT RightHip
		{
			OFFSET -1.73712 -1.40469 0.78906
			CHANNELS 3 Zrotation Yrotation Xrotation
			JOINT RightKnee
			{
				OFFSET -2.28137 -6.26801 0.00000
				CHANNELS 3 Zrotation Yrotation Xrotation
				JOINT RightAnkle
				{
					OFFSET -2.28681 -6.28298 0.00000
					CHANNELS 3 Zrotation Yrotation Xrotation
					JOINT RightToe
					{
						OFFSET -0.15927 -0.43759 1.61103
						CHANNELS 3 Zrotation Yrotation Xrotation
						End Site
						{
							OFFSET -0.00000 -0.00000 0.84630
						}
					}
				}
			}
		}
	}
	JOINT lowerback
	{
		OFFSET 0 0 0
		CHANNELS 3 Zrotation Yrotation Xrotation
		JOINT Chest
		{
			OFFSET -0.04227 2.04338 -0.00225
			CHANNELS 3 Zrotation Yrotation Xrotation
			JOINT Chest2
			{
				OFFSET -0.02148 2.04482 -0.04273
				CHANNELS 3 Zrotation Yrotation Xrotation
				JOINT lowerneck
				{
					OFFSET 0 0 0
					CHANNELS 3 Zrotation Yrotation Xrotation
					JOINT Neck
					{
						OFFSET 0.09180 1.44629 0.19359
						CHANNELS 3 Zrotation Yrotation Xrotation
						JOINT Head
						{
							OFFSET 0.00887 1.40645 0.14750
							CHANNELS 3 Zrotation Yrotation Xrotation
							End Site
							{
								OFFSET -0.00669 1.50671 0.03707
							}
						}
					}
				}
				JOINT LeftCollar
				{
					OFFSET 0 0 0
					CHANNELS 3 Zrotation Yrotation Xrotation
					JOINT LeftShoulder
					{
						OFFSET 2.17674 1.86763 -0.06520
CHANNELS 3 Zrotation Xrotation Yrotation
						JOINT LeftElbow
						{
OFFSET 0 -4.657760 0.000000
CHANNELS 3 Zrotation Xrotation Yrotation
							JOINT LeftWrist
							{
OFFSET 0 -3.555390 0.000000
CHANNELS 3 Zrotation Xrotation Yrotation
								JOINT lhand
								{
									OFFSET 0 0 0
CHANNELS 3 Zrotation Xrotation Yrotation
									JOINT LFingers
									{
OFFSET 0 -0.707260 0.000000
CHANNELS 3 Zrotation Xrotation Yrotation
										End Site
										{
OFFSET 0 -0.570220 0.000000
										}
									}
								}
								JOINT LThumb
								{
OFFSET 0 0.000000 0.000000
CHANNELS 3 Zrotation Xrotation Yrotation
									End Site
									{
OFFSET 0 -0.578920 0.578920
									}
								}
							}
						}
					}
				}
				JOINT RightCollar
				{
					OFFSET 0 0 0
					CHANNELS 3 Zrotation Yrotation Xrotation
					JOINT RightShoulder
					{
						OFFSET -2.80694 1.55459 -0.32496
CHANNELS 3 Zrotation Xrotation Yrotation
						JOINT RightElbow
						{
OFFSET 0 -4.719250 -0.000000
CHANNELS 3 Zrotation Xrotation Yrotation
							JOINT RightWrist
							{
OFFSET 0 -3.569900 0.000000
CHANNELS 3 Zrotation Xrotation Yrotation
								JOINT rhand
								{
									OFFSET 0 0 0
CHANNELS 3 Zrotation Xrotation Yrotation
									JOINT RFingers
									{
OFFSET 0 -0.507760 0.000000
CHANNELS 3 Zrotation Xrotation Yrotation
										End Site
										{
OFFSET 0 -0.409370 0.000000
										}
									}
								}
								JOINT RThumb
								{
OFFSET 0 0.000000 0.000000
CHANNELS 3 Zrotation Xrotation Yrotation
									End Site
									{
OFFSET 0 -0.415620 0.415620
									}
								}
							}
						}
					}
				}
			}
		}
	}
}
MOTION
Frames: 4
Frame Time: 0.008333333333333333
9.256900 16.299300 19.437300 179.764000 -2.248300 -152.835000 0.000000 0.000000 0.000000 -16.358000 -17.505400 -18.412200 0.153800 2.526900 6.964200 0.217400 -1.481700 -8.412400 2.690800 -10.176800 -29.551200 0.000000 0.000000 0.000000 16.954500 16.576800 -17.645900 -0.123200 -2.262600 6.232000 -1.249900 -0.194700 -21.215900 -2.967200 10.641700 -31.080900 -6.000300 -1.790600 -30.608100 0.412600 -1.554700 -3.696700 2.990800 -1.467900 11.975300 -4.738300 0.142800 -0.806700 7.025600 -0.581700 9.029800 3.158800 -0.376700 3.122400 -0.000000 0.000000 0.000000 1.900000 -1.108300 -24.355400 8.489700 -14.343400 1.070200 24.482800 -0.143800 11.887100 0.000000 0.000000 0.000000 -7.125000 0.000000 0.000000 -1.885000 16.961000 -1.253800 -0.000000 0.000000 0.000000 3.141700 1.968500 5.797400 -13.210400 -21.594700 -2.530200 -17.687700 17.574700 51.779800 0.000000 0.000000 0.000000 7.125000 0.000000 -0.000000 59.237300 77.556700 -47.775100
9.255123 16.281356 19.446103 179.742840 -2.212243 -152.065613 0.000000 0.000000 0.000000 -16.091127 -17.819164 -19.423407 0.163280 2.603077 7.175549 0.219093 -1.410602 -8.458783 2.790253 -10.347182 -30.108815 0.000000 0.000000 0.000000 16.633795 16.695297 -18.669041 -0.128956 -2.314485 6.375636 -1.249815 -0.095416 -21.180266 -3.079349 10.821985 -31.682190 -5.933518 -1.788484 -31.462636 0.355044 -1.575860 -3.757303 2.857236 -1.504380 12.265365 -4.668640 0.123248 -0.724175 6.998938 -0.574590 8.686580 3.129683 -0.366374 2.987905 0.000000 0.000000 0.000000 1.823823 -1.339201 -23.814713 8.499603 -14.359482 1.072655 24.191042 0.457067 11.776051 0.000000 0.000000 0.000000 -7.125000 0.000000 0.000000 -2.082298 17.111407 -1.378307 0.000000 0.000000 0.000000 3.244454 1.868962 6.015266 -13.204475 -21.586151 -2.527999 -17.757360 17.520191 51.247069 0.000000 0.000000 0.000000 7.125000 0.000000 0.000000 56.952668 77.373706 -45.569184
9.251336 16.263274 19.451580 179.795811 -2.090553 -151.414698 0.000000 0.000000 0.000000 -15.787326 -18.178170 -20.187138 0.168395 2.643781 7.288586 0.220993 -1.098263 -8.563156 2.845366 -10.440246 -30.414659 0.000000 0.000000 0.000000 16.395120 16.870260 -19.590407 -0.138245 -2.395815 6.600817 -1.249523 0.060749 -21.125095 -3.105035 10.863152 -31.819706 -5.755261 -1.694223 -32.248098 0.271022 -1.514159 -3.804050 2.670326 -1.495412 12.528479 -4.595932 0.093858 -0.561906 6.992645 -0.588057 8.330821 3.105971 -0.368795 2.836644 0.000000 0.000000 0.000000 1.763720 -1.503660 -23.324463 8.478398 -14.325403 1.067419 24.058010 1.110103 11.800033 0.000000 0.000000 0.000000 -7.125000 0.000000 0.000000 -2.176297 17.098932 -1.441291 0.000000 0.000000 0.000000 3.382681 1.736446 5.912356 -13.151161 -21.508320 -2.508478 -17.512755 17.499284 51.324645 0.000000 0.000000 0.000000 7.125000 0.000000 0.000000 57.409877 77.308284 -45.906408
9.248506 16.258156 19.454702 179.811294 -2.031951 -151.247316 0.000000 0.000000 0.000000 -15.701116 -18.368935 -20.357907 0.170062 2.656617 7.324180 0.221484 -0.879492 -8.622470 2.896311 -10.525013 -30.694401 0.000000 0.000000 0.000000 16.303291 16.894083 -19.851676 -0.140067 -2.411847 6.645260 -1.245086 0.140010 -21.060901 -3.080223 10.823708 -31.687624 -5.611446 -1.632702 -32.520914 0.183344 -1.464016 -3.766408 2.510036 -1.472161 12.676424 -4.534897 0.063095 -0.447368 6.992108 -0.608458 8.046857 3.088094 -0.375283 2.719898 0.000000 0.000000 0.000000 1.702111 -1.651125 -22.768878 8.411527 -14.217708 1.050934 24.075776 2.004256 11.977110 0.000000 0.000000 0.000000 -7.125000 0.000000 0.000000 -2.173359 16.904971 -1.448415 0.000000 0.000000 0.000000 3.522031 1.677558 5.841974 -13.151672 -21.509065 -2.508682 -17.191527 17.356357 51.495726 0.000000 0.000000 0.000000 7.125000 0.000000 0.000000 58.300744 77.247788 -46.634427
